HIERARCHY
ROOT joint_Root
{
	OFFSET 0.0 0.0 0.0
	CHANNELS 6 Xposition Yposition Zposition Zrotation Xrotation Yrotation 
	JOINT Hips
	{
		OFFSET -17.1583 93.1646 452.98
		CHANNELS 6 Xposition Yposition Zposition Zrotation Xrotation Yrotation 
		JOINT Spine
		{
			OFFSET 15.7357 0.0 0.0
			CHANNELS 6 Xposition Yposition Zposition Zrotation Xrotation Yrotation 
			JOINT Chest
			{
				OFFSET 8.98455 -0.406207 0.0
				CHANNELS 6 Xposition Yposition Zposition Zrotation Xrotation Yrotation 
				JOINT Neck
				{
					OFFSET 16.3773 0.0 0.0
					CHANNELS 6 Xposition Yposition Zposition Zrotation Xrotation Yrotation 
					JOINT Head
					{
						OFFSET 6.45672 0.0 0.0
						CHANNELS 6 Xposition Yposition Zposition Zrotation Xrotation Yrotation 
						End Site
						{
							OFFSET 0.0 0.0 0.0
						}
					}
				}
				JOINT Shoulder_L
				{
					OFFSET 12.9942 -0.242716 4.98039
					CHANNELS 6 Xposition Yposition Zposition Zrotation Xrotation Yrotation 
					JOINT UpperArm_L
					{
						OFFSET 5.34809 0.0 0.0
						CHANNELS 6 Xposition Yposition Zposition Zrotation Xrotation Yrotation 
						JOINT LowerArm_L
						{
							OFFSET 24.3286 1.87007e-05 0.0
							CHANNELS 6 Xposition Yposition Zposition Zrotation Xrotation Yrotation 
							JOINT Hand_L
							{
								OFFSET 22.2916 0.0 0.0
								CHANNELS 6 Xposition Yposition Zposition Zrotation Xrotation Yrotation 
								End Site
								{
									OFFSET 0.0 0.0 0.0
								}
							}
						}
					}
				}
				JOINT Shoulder_R
				{
					OFFSET 12.9945 -0.242716 -4.98039
					CHANNELS 6 Xposition Yposition Zposition Zrotation Xrotation Yrotation 
					JOINT UpperArm_R
					{
						OFFSET -5.34813 0.0 0.0
						CHANNELS 6 Xposition Yposition Zposition Zrotation Xrotation Yrotation 
						JOINT LowerArm_R
						{
							OFFSET -24.3289 0.000322201 0.0
							CHANNELS 6 Xposition Yposition Zposition Zrotation Xrotation Yrotation 
							JOINT Hand_R
							{
								OFFSET -22.2915 -0.000108084 0.0
								CHANNELS 6 Xposition Yposition Zposition Zrotation Xrotation Yrotation 
								End Site
								{
									OFFSET 0.0 0.0 0.0
								}
							}
						}
					}
				}
			}
		}
		JOINT UpperLeg_L
		{
			OFFSET -2.19248 -6.46944 0.0
			CHANNELS 6 Xposition Yposition Zposition Zrotation Xrotation Yrotation 
			JOINT LowerLeg_L
			{
				OFFSET 39.0811 0.0 -1.23785e-05
				CHANNELS 6 Xposition Yposition Zposition Zrotation Xrotation Yrotation 
				JOINT Foot_L
				{
					OFFSET 40.9854 0.0 -1.26872e-05
					CHANNELS 6 Xposition Yposition Zposition Zrotation Xrotation Yrotation 
					JOINT Toes_L
					{
						OFFSET 11.7543 0.0 0.0
						CHANNELS 6 Xposition Yposition Zposition Zrotation Xrotation Yrotation 
						End Site
						{
							OFFSET 0.0 0.0 0.0
						}
					}
				}
			}
		}
		JOINT UpperLeg_R
		{
			OFFSET -2.19251 6.46944 0.0
			CHANNELS 6 Xposition Yposition Zposition Zrotation Xrotation Yrotation 
			JOINT LowerLeg_R
			{
				OFFSET -39.0811 -0.00228153 -0.0401928
				CHANNELS 6 Xposition Yposition Zposition Zrotation Xrotation Yrotation 
				JOINT Foot_R
				{
					OFFSET -40.9854 0.0 0.0
					CHANNELS 6 Xposition Yposition Zposition Zrotation Xrotation Yrotation 
					JOINT Toes_R
					{
						OFFSET -11.7543 0.0 0.0
						CHANNELS 6 Xposition Yposition Zposition Zrotation Xrotation Yrotation 
						End Site
						{
							OFFSET 0.0 0.0 0.0
						}
					}
				}
			}
		}
	}
}
MOTION
Frames:	7
Frame Time:	0.0333333
0.000000 0.000000 0.000000 0.000000 0.000000 -0.000000 1.011320 90.972900 10.506400 89.299700 0.220156 6.068970 15.735700 0.000005 -0.000001 -83.951300 88.882200 84.469800 8.984550 -0.406207 -0.000000 -9.987610 -0.314767 1.012960 16.377300 -0.000001 -0.000001 1.249850 1.864520 -3.766300 6.456720 -0.000001 -0.000000 6.010590 1.084560 -2.471230 12.994200 -0.242716 4.980390 -89.278000 -1.452840 -63.569900 5.348090 -0.000007 -0.000001 -61.179500 -53.147500 -110.172000 24.328600 0.000019 0.000005 0.115613 8.783230 -0.756752 22.291600 -0.000001 0.000005 44.618500 4.097670 22.822400 12.994500 -0.242716 -4.980390 92.113600 -4.481460 -64.717300 -5.348130 -0.000001 -0.000004 -61.698600 -53.458900 -112.146000 -24.328900 0.000322 -0.000009 -0.001048 -11.949400 -0.000068 -22.291500 -0.000108 -0.000004 41.289600 5.510310 -6.955280 -2.192480 -6.469440 -0.000000 -173.794000 -7.134860 10.543700 39.081100 -0.000007 -0.000012 0.067702 -0.209816 17.883700 40.985400 -0.000006 -0.000013 1.343970 13.870900 -75.640500 11.754300 -0.000000 0.000003 -0.004447 0.223640 -7.499890 -2.192510 6.469440 -0.000001 172.971000 7.507700 -167.924000 -39.081100 -0.002282 -0.040193 -0.020805 0.086106 15.657400 -40.985400 0.000008 0.000006 -8.252320 7.218210 -75.150800 -11.754300 -0.000006 -0.000006 -0.013118 0.293290 -4.650800
0.000000 0.000000 0.000000 0.000000 0.000000 -0.000000 0.988937 90.958700 10.536800 89.296300 0.304259 6.078530 15.735700 0.000005 -0.000001 -82.993700 88.900200 83.527200 8.984550 -0.406207 -0.000000 -9.947370 -0.349475 1.039900 16.377300 -0.000001 -0.000001 1.535420 1.788340 -3.757180 6.456720 -0.000001 -0.000000 5.790150 1.034660 -2.486480 12.994200 -0.242716 4.980390 -89.279300 -1.448150 -63.538800 5.348090 -0.000007 -0.000001 -61.023300 -53.128700 -110.108000 24.328600 0.000019 0.000005 0.096407 8.614760 -0.643268 22.291600 -0.000001 0.000005 44.607600 4.102730 22.748800 12.994500 -0.242716 -4.980390 92.106100 -4.449050 -64.635400 -5.348130 -0.000001 -0.000004 -61.826600 -53.510700 -112.357000 -24.328900 0.000322 -0.000009 -0.001048 -11.918700 -0.000068 -22.291500 -0.000108 -0.000004 41.165900 5.510740 -6.972500 -2.192480 -6.469440 -0.000000 -173.764000 -7.086780 10.535800 39.081100 -0.000007 -0.000012 0.067658 -0.209099 17.930200 40.985400 -0.000006 -0.000013 1.350550 13.939300 -75.607400 11.754300 -0.000000 0.000003 -0.004233 0.221476 -7.588080 -2.192510 6.469440 -0.000001 173.027000 7.433920 -167.900000 -39.081100 -0.002282 -0.040193 -0.020286 0.084090 15.686100 -40.985400 0.000008 0.000006 -8.235590 7.083810 -75.147300 -11.754300 -0.000006 -0.000006 -0.012691 0.290417 -4.768550
0.000000 0.000000 0.000000 0.000000 0.000000 -0.000000 0.974630 90.957700 10.566000 89.340500 0.401024 6.098070 15.735700 0.000005 -0.000001 -82.423500 88.913600 82.954300 8.984550 -0.406207 -0.000000 -9.917980 -0.367040 1.033170 16.377300 -0.000001 -0.000001 1.693700 1.710990 -3.769560 6.456720 -0.000001 -0.000000 5.743190 0.923877 -2.465480 12.994200 -0.242716 4.980390 -89.290400 -1.422740 -63.488200 5.348090 -0.000007 -0.000001 -61.119000 -53.022800 -110.194000 24.328600 0.000019 0.000005 0.109548 8.758900 -0.719046 22.291600 -0.000001 0.000005 44.639100 4.090910 22.920800 12.994500 -0.242716 -4.980390 92.082200 -4.381680 -64.551100 -5.348130 -0.000001 -0.000004 -61.749800 -53.624800 -112.452000 -24.328900 0.000322 -0.000009 -0.001047 -11.982400 -0.000068 -22.291500 -0.000108 -0.000004 41.048100 5.509990 -6.941430 -2.192480 -6.469440 -0.000000 -173.773000 -7.085080 10.596600 39.081100 -0.000007 -0.000012 0.065794 -0.204144 17.863700 40.985400 -0.000006 -0.000013 1.340650 14.014300 -75.618100 11.754300 -0.000000 0.000003 -0.004549 0.224661 -7.458300 -2.192510 6.469440 -0.000001 172.972000 7.521680 -167.829000 -39.081100 -0.002282 -0.040193 -0.020917 0.086415 15.673000 -40.985400 0.000008 0.000006 -8.284440 7.085790 -75.192400 -11.754300 -0.000006 -0.000006 -0.012578 0.289654 -4.799800
0.000000 0.000000 0.000000 0.000000 0.000000 -0.000000 0.955905 90.946300 10.594300 89.335000 0.485580 6.079400 15.735700 0.000005 -0.000001 -81.860700 88.906600 82.398600 8.984550 -0.406207 -0.000000 -9.928870 -0.391204 1.045110 16.377300 -0.000001 -0.000001 1.811230 1.652850 -3.825340 6.456720 -0.000001 -0.000000 5.761350 0.833248 -2.364780 12.994200 -0.242716 4.980390 -89.311400 -1.377660 -63.437300 5.348090 -0.000007 -0.000001 -61.200200 -52.937900 -110.306000 24.328600 0.000019 0.000005 0.115505 8.868090 -0.748883 22.291600 -0.000001 0.000005 44.704100 4.088710 22.952800 12.994500 -0.242716 -4.980390 92.061500 -4.328210 -64.500600 -5.348130 -0.000001 -0.000004 -61.671200 -53.753700 -112.509000 -24.328900 0.000322 -0.000009 -0.001048 -11.961700 -0.000068 -22.291500 -0.000108 -0.000004 41.020300 5.510950 -6.981410 -2.192480 -6.469440 -0.000000 -173.742000 -7.090320 10.559800 39.081100 -0.000007 -0.000012 0.066193 -0.204713 17.918400 40.985400 -0.000006 -0.000013 1.352870 14.091000 -75.639700 11.754300 -0.000000 0.000003 -0.004345 0.222614 -7.541720 -2.192510 6.469440 -0.000001 173.011000 7.603330 -167.819000 -39.081100 -0.002282 -0.040193 -0.018583 0.077991 15.692900 -40.985400 0.000008 0.000006 -8.049470 6.990370 -75.304300 -11.754300 -0.000006 -0.000006 -0.013298 0.294483 -4.601900
0.000000 0.000000 0.000000 0.000000 0.000000 -0.000000 0.937216 90.952300 10.612600 89.386100 0.568755 6.052280 15.735700 0.000005 -0.000001 -81.343300 88.911000 81.874800 8.984550 -0.406207 -0.000000 -9.917210 -0.408321 1.031120 16.377300 -0.000001 -0.000001 1.949960 1.554660 -3.798120 6.456720 -0.000001 -0.000000 5.609220 0.743981 -2.393300 12.994200 -0.242716 4.980390 -89.332100 -1.331770 -63.360600 5.348090 -0.000007 -0.000001 -61.293300 -52.906900 -110.396000 24.328600 0.000019 0.000005 0.117336 8.961450 -0.752936 22.291600 -0.000001 0.000005 44.801900 4.085000 23.006700 12.994500 -0.242716 -4.980390 92.037900 -4.269390 -64.452900 -5.348130 -0.000001 -0.000004 -61.724500 -53.905400 -112.687000 -24.328900 0.000322 -0.000009 -0.001046 -11.872300 -0.000068 -22.291500 -0.000108 -0.000004 40.936100 5.508700 -6.888270 -2.192480 -6.469440 -0.000000 -173.800000 -6.973770 10.602400 39.081100 -0.000007 -0.000012 0.065872 -0.205464 17.776000 40.985400 -0.000006 -0.000013 1.325470 14.089100 -75.577700 11.754300 -0.000000 0.000003 -0.004270 0.221856 -7.572580 -2.192510 6.469440 -0.000001 172.973000 7.642820 -167.798000 -39.081100 -0.002282 -0.040193 -0.018702 0.078691 15.640600 -40.985400 0.000008 0.000006 -8.055050 6.950680 -75.274200 -11.754300 -0.000006 -0.000006 -0.012972 0.292312 -4.690910
0.000000 0.000000 0.000000 0.000000 0.000000 -0.000000 0.919200 90.951900 10.631900 89.386800 0.638258 6.057950 15.735700 0.000005 -0.000001 -80.861700 88.929800 81.403500 8.984550 -0.406207 -0.000000 -9.877230 -0.421798 1.050610 16.377300 -0.000001 -0.000001 2.094140 1.548200 -3.880570 6.456720 -0.000001 -0.000000 5.406240 0.715975 -2.237870 12.994200 -0.242716 4.980390 -89.338000 -1.318150 -63.330700 5.348090 -0.000007 -0.000001 -61.361700 -52.952700 -110.417000 24.328600 0.000019 0.000005 0.116970 9.023080 -0.745459 22.291600 -0.000001 0.000005 45.045200 4.080600 23.070400 12.994500 -0.242716 -4.980390 92.016600 -4.212630 -64.389700 -5.348130 -0.000001 -0.000004 -61.586700 -54.073700 -112.674000 -24.328900 0.000322 -0.000009 -0.001047 -11.897700 -0.000068 -22.291500 -0.000108 -0.000004 40.960300 5.510380 -6.957430 -2.192480 -6.469440 -0.000000 -173.759000 -7.002280 10.617800 39.081100 -0.000007 -0.000012 0.065010 -0.202969 17.760200 40.985400 -0.000006 -0.000013 1.315330 14.166600 -75.583600 11.754300 -0.000000 0.000003 -0.004263 0.221781 -7.575640 -2.192510 6.469440 -0.000001 172.994000 7.603340 -167.745000 -39.081100 -0.002282 -0.040193 -0.020565 0.085624 15.592200 -40.985400 0.000008 0.000006 -8.161950 6.908360 -75.247900 -11.754300 -0.000006 -0.000006 -0.013177 0.293685 -4.634610
0.000000 0.000000 0.000000 0.000000 0.000000 -0.000000 0.899065 90.960000 10.618800 89.409300 0.671092 5.984840 15.735700 0.000005 -0.000001 -80.093100 88.911500 80.660600 8.984550 -0.406207 -0.000000 -9.908130 -0.460322 1.098620 16.377300 -0.000001 -0.000001 2.113850 1.552400 -3.849880 6.456720 -0.000001 -0.000000 5.431540 0.742003 -2.342530 12.994200 -0.242716 4.980390 -89.356600 -1.280030 -63.311600 5.348090 -0.000007 -0.000001 -61.387100 -53.064900 -110.353000 24.328600 0.000019 0.000005 0.101706 8.932150 -0.654688 22.291600 -0.000001 0.000005 45.117600 4.083020 23.035300 12.994500 -0.242716 -4.980390 92.023800 -4.226140 -64.381600 -5.348130 -0.000001 -0.000004 -61.803300 -54.098100 -112.938000 -24.328900 0.000322 -0.000009 -0.001047 -11.841300 -0.000068 -22.291500 -0.000108 -0.000004 40.887100 5.507540 -6.840280 -2.192480 -6.469440 -0.000000 -173.792000 -6.950410 10.568100 39.081100 -0.000007 -0.000012 0.065539 -0.205508 17.688300 40.985400 -0.000006 -0.000013 1.304040 14.184300 -75.557700 11.754300 -0.000000 0.000003 -0.004302 0.222179 -7.559440 -2.192510 6.469440 -0.000001 173.005000 7.623900 -167.820000 -39.081100 -0.002282 -0.040193 -0.019648 0.082394 15.582200 -40.985400 0.000008 0.000006 -8.130690 6.842360 -75.237400 -11.754300 -0.000006 -0.000006 -0.012988 0.292419 -4.686510
